<?xml version="1.0" encoding="utf-8"?><svg viewBox="0 0 22 22" xmlns="http://www.w3.org/2000/svg" xmlns:xlink="http://www.w3.org/1999/xlink"><style>:root>svg{display:none}:root>svg:target{display:block}</style><svg fill="none" viewBox="0 0 16 16" id="arrow" xmlns="http://www.w3.org/2000/svg"><path d="m0 8 1.39-1.43L7 12.17V0h2v12.17l5.6-5.6L16 8l-8 8-8-8z" fill="#000"/></svg><svg fill="none" viewBox="0 0 22 22" id="facebook" xmlns="http://www.w3.org/2000/svg"><defs><clipPath id="ba"><path fill="#fff" fill-opacity="0" d="M0 0h22v22H0z"/></clipPath></defs><path d="M0 0h22v22H0z"/><g clip-path="url(#ba)"><path d="M11 2.06c-1.77 0-3.5.52-4.97 1.5a8.946 8.946 0 0 0-3.29 4.01 8.887 8.887 0 0 0-.51 5.17c.34 1.73 1.2 3.32 2.45 4.57a8.904 8.904 0 0 0 4.57 2.45c1.74.35 3.53.17 5.17-.51a8.946 8.946 0 0 0 4.01-3.29 8.95 8.95 0 0 0 1.5-4.96c0-2.37-.94-4.65-2.62-6.32A8.908 8.908 0 0 0 11 2.06zm.68 16.47v-5.47h2.07c.18 0 .35-.07.48-.2a.697.697 0 0 0 0-.98c-.13-.13-.3-.2-.48-.2h-2.07V9.62c0-.36.15-.71.41-.97.25-.26.6-.4.97-.4h1.37c.18 0 .36-.08.49-.21s.2-.3.2-.48-.07-.36-.2-.49a.697.697 0 0 0-.49-.2h-1.37a2.747 2.747 0 0 0-2.75 2.75v2.06H8.25a.68.68 0 0 0-.69.69.68.68 0 0 0 .69.69h2.06v5.47a7.543 7.543 0 0 1-5.01-2.57 7.546 7.546 0 0 1 .47-10.43 7.554 7.554 0 0 1 10.45 0 7.546 7.546 0 0 1 2.33 5.12c.09 1.94-.58 3.85-1.85 5.31a7.588 7.588 0 0 1-5.02 2.57z" fill="#000"/></g></svg><svg fill="none" viewBox="0 0 22 22" id="instagram" xmlns="http://www.w3.org/2000/svg"><defs><clipPath id="ca"><path fill="#fff" fill-opacity="0" d="M0 0h22v22H0z"/></clipPath></defs><path d="M0 0h22v22H0z"/><g clip-path="url(#ca)"><path d="M11 6.87c-.82 0-1.62.24-2.3.7-.67.45-1.2 1.09-1.52 1.85a4.12 4.12 0 0 0 .9 4.49 4.12 4.12 0 0 0 4.49.9c.76-.32 1.4-.84 1.85-1.52.46-.68.7-1.48.7-2.29A4.133 4.133 0 0 0 11 6.87zm0 6.88c-.55 0-1.08-.17-1.53-.47-.45-.3-.81-.73-1.02-1.23-.2-.51-.26-1.06-.15-1.59a2.736 2.736 0 0 1 2.16-2.16c.53-.11 1.08-.05 1.59.15.5.21.93.57 1.23 1.02.3.45.47.98.47 1.53 0 .72-.29 1.42-.81 1.94s-1.22.81-1.94.81zm4.12-11.69H6.87c-1.28 0-2.5.51-3.4 1.41-.9.9-1.41 2.12-1.41 3.4v8.25c0 1.28.51 2.5 1.41 3.4.9.9 2.12 1.41 3.4 1.41h8.25c1.28 0 2.5-.51 3.4-1.41.9-.9 1.41-2.12 1.41-3.4V6.87c0-1.28-.51-2.5-1.41-3.4-.9-.9-2.12-1.41-3.4-1.41zm3.44 13.06c0 .91-.36 1.79-1.01 2.43-.64.65-1.52 1.01-2.43 1.01H6.87c-.91 0-1.79-.36-2.43-1.01a3.412 3.412 0 0 1-1.01-2.43V6.87c0-.91.36-1.79 1.01-2.43.64-.65 1.52-1.01 2.43-1.01h8.25c.91 0 1.79.36 2.43 1.01.65.64 1.01 1.52 1.01 2.43v8.25zM16.5 6.53c0 .2-.07.4-.18.57a1.03 1.03 0 0 1-1.06.44c-.2-.04-.38-.14-.53-.28-.14-.15-.24-.33-.28-.53a1.03 1.03 0 0 1 1.01-1.23c.28 0 .54.1.73.3.2.19.31.45.31.73z" fill="#000"/></g></svg></svg>